<svg xmlns="http://www.w3.org/2000/svg" xmlns:xlink="http://www.w3.org/1999/xlink" width="500" zoomAndPan="magnify" viewBox="0 0 375 374.999991" height="500" preserveAspectRatio="xMidYMid meet" version="1.0"><defs><clipPath id="bc2f5b7207"><path d="M 20.585938 58.589844 L 237.332031 58.589844 L 237.332031 317.339844 L 20.585938 317.339844 Z M 20.585938 58.589844 " clip-rule="nonzero"/></clipPath><clipPath id="a0dc5b63db"><path d="M 237.398438 85.585938 L 237.398438 290.691406 C 237.398438 297.851562 234.554688 304.71875 229.492188 309.78125 C 224.425781 314.84375 217.558594 317.691406 210.398438 317.691406 L 47.585938 317.691406 C 40.425781 317.691406 33.558594 314.84375 28.496094 309.78125 C 23.429688 304.71875 20.585938 297.851562 20.585938 290.691406 L 20.585938 85.585938 C 20.585938 78.425781 23.429688 71.558594 28.496094 66.496094 C 33.558594 61.433594 40.425781 58.589844 47.585938 58.589844 L 210.398438 58.589844 C 217.558594 58.589844 224.425781 61.433594 229.492188 66.496094 C 234.554688 71.558594 237.398438 78.425781 237.398438 85.585938 Z M 237.398438 85.585938 " clip-rule="nonzero"/></clipPath><clipPath id="162b2800c6"><path d="M 221 78 L 332 78 L 332 177 L 221 177 Z M 221 78 " clip-rule="nonzero"/></clipPath><clipPath id="93571f4de5"><path d="M 202.292969 139.289062 L 305.296875 50.253906 L 356.234375 109.183594 L 253.234375 198.21875 Z M 202.292969 139.289062 " clip-rule="nonzero"/></clipPath><clipPath id="bf3b412718"><path d="M 326.832031 78.382812 L 268.847656 82.605469 C 267.710938 82.6875 266.71875 83.402344 266.28125 84.457031 C 265.847656 85.507812 266.042969 86.71875 266.789062 87.578125 L 277.332031 99.777344 C 278.371094 100.980469 278.890625 102.550781 278.777344 104.136719 C 278.660156 105.722656 277.921875 107.199219 276.714844 108.242188 L 223.300781 154.414062 C 222.097656 155.453125 221.355469 156.929688 221.238281 158.519531 C 221.125 160.105469 221.644531 161.671875 222.683594 162.878906 L 232.84375 174.628906 C 233.882812 175.832031 235.359375 176.574219 236.949219 176.691406 C 238.535156 176.804688 240.101562 176.285156 241.304688 175.246094 L 294.722656 129.074219 C 295.925781 128.03125 297.496094 127.511719 299.082031 127.628906 C 300.667969 127.742188 302.144531 128.484375 303.1875 129.6875 L 313.730469 141.886719 C 314.476562 142.75 315.644531 143.117188 316.746094 142.839844 C 317.851562 142.558594 318.707031 141.679688 318.953125 140.566406 L 331.515625 83.808594 C 331.824219 82.429688 331.457031 80.988281 330.535156 79.917969 C 329.613281 78.851562 328.238281 78.28125 326.832031 78.382812 Z M 326.832031 78.382812 " clip-rule="nonzero"/></clipPath><clipPath id="57a70bf605"><path d="M 0.0390625 0.238281 L 110.921875 0.238281 L 110.921875 98.878906 L 0.0390625 98.878906 Z M 0.0390625 0.238281 " clip-rule="nonzero"/></clipPath><clipPath id="d3150ea403"><path d="M -18.707031 61.289062 L 84.296875 -27.746094 L 135.234375 31.183594 L 32.234375 120.21875 Z M -18.707031 61.289062 " clip-rule="nonzero"/></clipPath><clipPath id="ab612bc5cc"><path d="M 105.832031 0.382812 L 47.847656 4.605469 C 46.710938 4.6875 45.71875 5.402344 45.28125 6.457031 C 44.847656 7.507812 45.042969 8.71875 45.789062 9.578125 L 56.332031 21.777344 C 57.371094 22.980469 57.890625 24.550781 57.777344 26.136719 C 57.660156 27.722656 56.921875 29.199219 55.714844 30.242188 L 2.300781 76.414062 C 1.097656 77.453125 0.355469 78.929688 0.238281 80.519531 C 0.125 82.105469 0.644531 83.671875 1.683594 84.878906 L 11.84375 96.628906 C 12.882812 97.832031 14.359375 98.574219 15.949219 98.691406 C 17.535156 98.804688 19.101562 98.285156 20.304688 97.246094 L 73.722656 51.074219 C 74.925781 50.03125 76.496094 49.511719 78.082031 49.628906 C 79.667969 49.742188 81.144531 50.484375 82.1875 51.6875 L 92.730469 63.886719 C 93.476562 64.75 94.644531 65.117188 95.746094 64.839844 C 96.851562 64.558594 97.707031 63.679688 97.953125 62.566406 L 110.515625 5.808594 C 110.824219 4.429688 110.457031 2.988281 109.535156 1.917969 C 108.613281 0.851562 107.238281 0.28125 105.832031 0.382812 Z M 105.832031 0.382812 " clip-rule="nonzero"/></clipPath><clipPath id="4c142c9009"><rect x="0" width="111" y="0" height="99"/></clipPath><clipPath id="213e0a9a7d"><path d="M 227.683594 147 L 363.835938 147 L 363.835938 224.890625 L 227.683594 224.890625 Z M 227.683594 147 " clip-rule="nonzero"/></clipPath><clipPath id="f7667afa2f"><path d="M 361.730469 182.359375 L 315.101562 147.636719 C 314.191406 146.957031 312.96875 146.847656 311.953125 147.359375 C 310.933594 147.871094 310.292969 148.914062 310.292969 150.050781 L 310.292969 166.175781 C 310.292969 167.769531 309.660156 169.292969 308.535156 170.421875 C 307.410156 171.546875 305.882812 172.175781 304.292969 172.175781 L 233.683594 172.175781 C 232.09375 172.175781 230.566406 172.808594 229.441406 173.933594 C 228.316406 175.058594 227.683594 176.585938 227.683594 178.175781 L 227.683594 193.710938 C 227.683594 195.304688 228.316406 196.828125 229.441406 197.953125 C 230.566406 199.078125 232.09375 199.710938 233.683594 199.710938 L 304.292969 199.710938 C 305.882812 199.710938 307.410156 200.34375 308.535156 201.46875 C 309.660156 202.59375 310.292969 204.121094 310.292969 205.710938 L 310.292969 221.835938 C 310.292969 222.976562 310.933594 224.019531 311.953125 224.53125 C 312.96875 225.039062 314.191406 224.933594 315.101562 224.253906 L 361.730469 189.527344 C 362.863281 188.683594 363.527344 187.355469 363.527344 185.945312 C 363.527344 184.53125 362.863281 183.203125 361.730469 182.359375 Z M 361.730469 182.359375 " clip-rule="nonzero"/></clipPath><clipPath id="af8a253448"><path d="M 0.683594 0 L 136.601562 0 L 136.601562 77.890625 L 0.683594 77.890625 Z M 0.683594 0 " clip-rule="nonzero"/></clipPath><clipPath id="3d668aec23"><path d="M 134.730469 35.359375 L 88.101562 0.636719 C 87.191406 -0.0429688 85.96875 -0.152344 84.953125 0.359375 C 83.933594 0.871094 83.292969 1.914062 83.292969 3.050781 L 83.292969 19.175781 C 83.292969 20.769531 82.660156 22.292969 81.535156 23.421875 C 80.410156 24.546875 78.882812 25.175781 77.292969 25.175781 L 6.683594 25.175781 C 5.09375 25.175781 3.566406 25.808594 2.441406 26.933594 C 1.316406 28.058594 0.683594 29.585938 0.683594 31.175781 L 0.683594 46.710938 C 0.683594 48.304688 1.316406 49.828125 2.441406 50.953125 C 3.566406 52.078125 5.09375 52.710938 6.683594 52.710938 L 77.292969 52.710938 C 78.882812 52.710938 80.410156 53.34375 81.535156 54.46875 C 82.660156 55.59375 83.292969 57.121094 83.292969 58.710938 L 83.292969 74.835938 C 83.292969 75.976562 83.933594 77.019531 84.953125 77.53125 C 85.96875 78.039062 87.191406 77.933594 88.101562 77.253906 L 134.730469 42.527344 C 135.863281 41.683594 136.527344 40.355469 136.527344 38.945312 C 136.527344 37.53125 135.863281 36.203125 134.730469 35.359375 Z M 134.730469 35.359375 " clip-rule="nonzero"/></clipPath><clipPath id="8736f26c72"><rect x="0" width="137" y="0" height="78"/></clipPath><clipPath id="bcc3c32635"><path d="M 221 198 L 332 198 L 332 297 L 221 297 Z M 221 198 " clip-rule="nonzero"/></clipPath><clipPath id="19c679d2ec"><path d="M 253.1875 176.816406 L 356.25 265.78125 L 305.355469 324.746094 L 202.289062 235.78125 Z M 253.1875 176.816406 " clip-rule="nonzero"/></clipPath><clipPath id="6406f4c67e"><path d="M 331.550781 291.171875 L 318.945312 234.421875 C 318.695312 233.308594 317.84375 232.429688 316.738281 232.152344 C 315.632812 231.875 314.46875 232.242188 313.722656 233.105469 L 303.1875 245.3125 C 302.144531 246.515625 300.671875 247.257812 299.082031 247.375 C 297.496094 247.492188 295.929688 246.972656 294.722656 245.933594 L 241.273438 199.796875 C 240.070312 198.757812 238.503906 198.238281 236.914062 198.355469 C 235.328125 198.472656 233.851562 199.214844 232.8125 200.417969 L 222.660156 212.179688 C 221.621094 213.382812 221.101562 214.953125 221.21875 216.539062 C 221.335938 218.125 222.078125 219.601562 223.285156 220.640625 L 276.730469 266.777344 C 277.9375 267.816406 278.679688 269.292969 278.796875 270.878906 C 278.910156 272.464844 278.394531 274.035156 277.351562 275.238281 L 266.816406 287.445312 C 266.074219 288.308594 265.878906 289.515625 266.316406 290.570312 C 266.75 291.621094 267.746094 292.335938 268.878906 292.417969 L 326.867188 296.597656 C 328.273438 296.699219 329.648438 296.128906 330.570312 295.0625 C 331.492188 293.992188 331.855469 292.550781 331.550781 291.171875 Z M 331.550781 291.171875 " clip-rule="nonzero"/></clipPath><clipPath id="ae340e80df"><path d="M 0.0390625 0 L 110.921875 0 L 110.921875 98.878906 L 0.0390625 98.878906 Z M 0.0390625 0 " clip-rule="nonzero"/></clipPath><clipPath id="a46f9eea9a"><path d="M 32.1875 -21.183594 L 135.25 67.78125 L 84.355469 126.746094 L -18.710938 37.78125 Z M 32.1875 -21.183594 " clip-rule="nonzero"/></clipPath><clipPath id="00c43445f2"><path d="M 110.550781 93.171875 L 97.945312 36.421875 C 97.695312 35.308594 96.84375 34.429688 95.738281 34.152344 C 94.632812 33.875 93.46875 34.242188 92.722656 35.105469 L 82.1875 47.3125 C 81.144531 48.515625 79.671875 49.257812 78.082031 49.375 C 76.496094 49.492188 74.929688 48.972656 73.722656 47.933594 L 20.273438 1.796875 C 19.070312 0.757812 17.503906 0.238281 15.914062 0.355469 C 14.328125 0.472656 12.851562 1.214844 11.8125 2.417969 L 1.660156 14.179688 C 0.621094 15.382812 0.101562 16.953125 0.21875 18.539062 C 0.335938 20.125 1.078125 21.601562 2.285156 22.640625 L 55.730469 68.777344 C 56.9375 69.816406 57.679688 71.292969 57.796875 72.878906 C 57.910156 74.464844 57.394531 76.035156 56.351562 77.238281 L 45.816406 89.445312 C 45.074219 90.308594 44.878906 91.515625 45.316406 92.570312 C 45.75 93.621094 46.746094 94.335938 47.878906 94.417969 L 105.867188 98.597656 C 107.273438 98.699219 108.648438 98.128906 109.570312 97.0625 C 110.492188 95.992188 110.855469 94.550781 110.550781 93.171875 Z M 110.550781 93.171875 " clip-rule="nonzero"/></clipPath><clipPath id="6738661b09"><rect x="0" width="111" y="0" height="99"/></clipPath></defs><g clip-path="url(#bc2f5b7207)"><g clip-path="url(#a0dc5b63db)"><path stroke-linecap="butt" transform="matrix(0.75, 0, 0, 0.75, 20.587139, 58.588151)" fill="none" stroke-linejoin="miter" d="M 289.081751 35.997052 L 289.081751 309.471028 C 289.081751 319.017904 285.290084 328.174154 278.540083 334.924155 C 271.784874 341.674155 262.628624 345.47103 253.081748 345.47103 L 35.998401 345.47103 C 26.451525 345.47103 17.295274 341.674155 10.545274 334.924155 C 3.790065 328.174154 -0.00160177 319.017904 -0.00160177 309.471028 L -0.00160177 35.997052 C -0.00160177 26.450176 3.790065 17.293925 10.545274 10.543925 C 17.295274 3.793925 26.451525 0.0022576 35.998401 0.0022576 L 253.081748 0.0022576 C 262.628624 0.0022576 271.784874 3.793925 278.540083 10.543925 C 285.290084 17.293925 289.081751 26.450176 289.081751 35.997052 Z M 289.081751 35.997052 " stroke="#000000" stroke-width="78" stroke-opacity="1" stroke-miterlimit="4"/></g></g><path stroke-linecap="round" transform="matrix(0.75, 0, 0, 0.75, 62.650378, 109.932137)" fill="none" stroke-linejoin="miter" d="M 14.997414 15.001944 L 162.862007 15.001944 " stroke="#000000" stroke-width="30" stroke-opacity="1" stroke-miterlimit="4"/><path stroke-linecap="round" transform="matrix(0.75, 0, 0, 0.75, 62.650378, 163.337216)" fill="none" stroke-linejoin="miter" d="M 14.997414 14.998296 L 115.882837 14.998296 " stroke="#000000" stroke-width="30" stroke-opacity="1" stroke-miterlimit="4"/><path stroke-linecap="round" transform="matrix(0.75, 0, 0, 0.75, 62.650378, 216.587213)" fill="none" stroke-linejoin="miter" d="M 14.997414 14.9983 L 88.627627 14.9983 " stroke="#000000" stroke-width="30" stroke-opacity="1" stroke-miterlimit="4"/><g clip-path="url(#162b2800c6)"><g clip-path="url(#93571f4de5)"><g clip-path="url(#bf3b412718)"><g transform="matrix(1, 0, 0, 1, 221, 78)"><g clip-path="url(#4c142c9009)"><g clip-path="url(#57a70bf605)"><g clip-path="url(#d3150ea403)"><g clip-path="url(#ab612bc5cc)"><path fill="#000000" d="M -20.632812 59.058594 L 84.351562 -31.6875 L 139.144531 31.699219 L 34.160156 122.445312 Z M -20.632812 59.058594 " fill-opacity="1" fill-rule="nonzero"/></g></g></g></g></g></g></g></g><g clip-path="url(#213e0a9a7d)"><g clip-path="url(#f7667afa2f)"><g transform="matrix(1, 0, 0, 1, 227, 147)"><g clip-path="url(#8736f26c72)"><g clip-path="url(#af8a253448)"><g clip-path="url(#3d668aec23)"><path fill="#000000" d="M 0.683594 -2.949219 L 139.453125 -2.949219 L 139.453125 80.835938 L 0.683594 80.835938 Z M 0.683594 -2.949219 " fill-opacity="1" fill-rule="nonzero"/></g></g></g></g></g></g><g clip-path="url(#bcc3c32635)"><g clip-path="url(#19c679d2ec)"><g clip-path="url(#6406f4c67e)"><g transform="matrix(1, 0, 0, 1, 221, 198)"><g clip-path="url(#6738661b09)"><g clip-path="url(#ae340e80df)"><g clip-path="url(#a46f9eea9a)"><g clip-path="url(#00c43445f2)"><path fill="#000000" d="M 34.109375 -23.414062 L 139.15625 67.261719 L 84.410156 130.683594 L -20.636719 40.011719 Z M 34.109375 -23.414062 " fill-opacity="1" fill-rule="nonzero"/></g></g></g></g></g></g></g></g></svg>